<svg width="24" height="22" viewBox="0 0 24 22" fill="none" xmlns="http://www.w3.org/2000/svg">
<path d="M15.1065 1.63564C15.0559 1.55113 15.0224 1.45748 15.008 1.36003C14.9935 1.26259 14.9984 1.16325 15.0224 1.0677C15.0463 0.97215 15.0889 0.882253 15.1476 0.803143C15.2063 0.724033 15.28 0.65726 15.3645 0.606635C15.449 0.55601 15.5427 0.522526 15.6401 0.508094C15.7375 0.493662 15.8369 0.498565 15.9324 0.522522C16.028 0.54648 16.1179 0.589023 16.197 0.647723C16.2761 0.706423 16.3429 0.780129 16.3935 0.864635L20.6745 8.00014H23.25C23.4489 8.00014 23.6397 8.07915 23.7803 8.21981C23.921 8.36046 24 8.55122 24 8.75014V10.2501C24 10.449 23.921 10.6398 23.7803 10.7805C23.6397 10.9211 23.4489 11.0001 23.25 11.0001H22.3155L19.5495 20.6841C19.4822 20.9197 19.3399 21.1268 19.1442 21.2741C18.9484 21.4214 18.71 21.5007 18.465 21.5001H5.532C5.2873 21.5004 5.04918 21.4209 4.85374 21.2736C4.65831 21.1264 4.51621 20.9194 4.449 20.6841L1.6845 11.0001H0.75C0.551088 11.0001 0.360322 10.9211 0.219669 10.7805C0.0790171 10.6398 0 10.449 0 10.2501V8.75014C0 8.55122 0.0790171 8.36046 0.219669 8.21981C0.360322 8.07915 0.551088 8.00014 0.75 8.00014H3.3255L7.605 0.864635C7.65562 0.780129 7.7224 0.706423 7.80151 0.647723C7.88062 0.589023 7.97052 0.54648 8.06607 0.522522C8.16162 0.498565 8.26095 0.493662 8.3584 0.508094C8.45584 0.522526 8.54949 0.55601 8.634 0.606635C8.7185 0.65726 8.79221 0.724033 8.85091 0.803143C8.90961 0.882253 8.95216 0.97215 8.97611 1.0677C9.00007 1.16325 9.00497 1.26259 8.99054 1.36003C8.97611 1.45748 8.94262 1.55113 8.892 1.63564L5.0745 8.00014H18.9255L15.1065 1.63564ZM18 14.0001C18 13.6023 17.842 13.2208 17.5607 12.9395C17.2794 12.6582 16.8978 12.5001 16.5 12.5001C16.1022 12.5001 15.7206 12.6582 15.4393 12.9395C15.158 13.2208 15 13.6023 15 14.0001V17.0001C15 17.398 15.158 17.7795 15.4393 18.0608C15.7206 18.3421 16.1022 18.5001 16.5 18.5001C16.8978 18.5001 17.2794 18.3421 17.5607 18.0608C17.842 17.7795 18 17.398 18 17.0001V14.0001ZM13.5 14.0001C13.5 13.6023 13.342 13.2208 13.0607 12.9395C12.7794 12.6582 12.3978 12.5001 12 12.5001C11.6022 12.5001 11.2206 12.6582 10.9393 12.9395C10.658 13.2208 10.5 13.6023 10.5 14.0001V17.0001C10.5 17.398 10.658 17.7795 10.9393 18.0608C11.2206 18.3421 11.6022 18.5001 12 18.5001C12.3978 18.5001 12.7794 18.3421 13.0607 18.0608C13.342 17.7795 13.5 17.398 13.5 17.0001V14.0001ZM7.5 12.5001C7.10218 12.5001 6.72065 12.6582 6.43934 12.9395C6.15804 13.2208 6 13.6023 6 14.0001V17.0001C6 17.398 6.15804 17.7795 6.43934 18.0608C6.72065 18.3421 7.10218 18.5001 7.5 18.5001C7.89782 18.5001 8.27935 18.3421 8.56066 18.0608C8.84196 17.7795 9 17.398 9 17.0001V14.0001C9 13.6023 8.84196 13.2208 8.56066 12.9395C8.27935 12.6582 7.89782 12.5001 7.5 12.5001Z" fill="#F79726"/>
</svg>
