<svg width="24" height="24" viewBox="0 0 24 24" fill="none" xmlns="http://www.w3.org/2000/svg">
<path d="M2.72727 24C1.97727 24 1.33545 23.7391 0.801818 23.2173C0.268182 22.6955 0.000909091 22.0675 0 21.3333V2.66666C0 1.93333 0.267273 1.30578 0.801818 0.783999C1.33636 0.262222 1.97818 0.000888888 2.72727 0H10.9091C11.2955 0 11.6195 0.128 11.8814 0.384C12.1432 0.64 12.2736 0.956444 12.2727 1.33333C12.2718 1.71022 12.1409 2.02711 11.88 2.284C11.6191 2.54089 11.2955 2.66844 10.9091 2.66666H2.72727V21.3333H10.9091C11.2955 21.3333 11.6195 21.4613 11.8814 21.7173C12.1432 21.9733 12.2736 22.2898 12.2727 22.6666C12.2718 23.0435 12.1409 23.3604 11.88 23.6173C11.6191 23.8742 11.2955 24.0018 10.9091 24H2.72727ZM19.3295 13.3333H9.54545C9.15909 13.3333 8.83545 13.2053 8.57455 12.9493C8.31364 12.6933 8.18273 12.3769 8.18182 12C8.18091 11.6231 8.31182 11.3067 8.57455 11.0507C8.83727 10.7947 9.16091 10.6667 9.54545 10.6667H19.3295L16.7727 8.16666C16.5227 7.92222 16.3977 7.62222 16.3977 7.26666C16.3977 6.91111 16.5227 6.59999 16.7727 6.33333C17.0227 6.06666 17.3409 5.92755 17.7273 5.916C18.1136 5.90444 18.4432 6.03244 18.7159 6.29999L23.5909 11.0667C23.8636 11.3333 24 11.6444 24 12C24 12.3555 23.8636 12.6667 23.5909 12.9333L18.7159 17.7C18.4432 17.9667 18.1195 18.0947 17.745 18.084C17.3705 18.0733 17.0464 17.9342 16.7727 17.6667C16.5227 17.4 16.4036 17.0835 16.4155 16.7173C16.4273 16.3511 16.5577 16.0453 16.8068 15.8L19.3295 13.3333Z" fill="#FF9900"/>
</svg>
