<svg width="24" height="24" viewBox="0 0 24 24" fill="none" xmlns="http://www.w3.org/2000/svg">
<path d="M12.5241 20.6946C13.3466 20.6946 14.1499 20.5842 14.9341 20.3635C15.7183 20.1428 16.4642 19.822 17.1719 19.4012L12.725 14.9461H12.5241C11.4913 14.9461 10.4776 15.0802 9.48303 15.3485C8.48846 15.6168 7.5417 16.0172 6.64276 16.5499C6.31761 16.74 6.14088 17.0252 6.11257 17.4053C6.08427 17.7855 6.20362 18.1086 6.47062 18.3745C7.31218 19.0973 8.24938 19.6645 9.28221 20.0761C10.315 20.4877 11.3957 20.6938 12.5241 20.6946ZM21.4466 23.6551L18.8645 21.097C17.9274 21.7102 16.9232 22.1796 15.8521 22.5054C14.7811 22.8311 13.6717 22.994 12.5241 22.994C10.9366 22.994 9.44478 22.692 8.04855 22.088C6.65232 21.4841 5.43779 20.6651 4.40497 19.6311C3.37214 18.5972 2.55467 17.3804 1.95257 15.9808C1.35047 14.5813 1.04904 13.0867 1.04828 11.497C1.04828 10.3665 1.20626 9.26467 1.52223 8.19162C1.8382 7.11857 2.30182 6.103 2.9131 5.14491L0.331034 2.52935C0.101517 2.29941 -0.00865103 2.02654 0.000529655 1.71076C0.00971034 1.39498 0.129442 1.12173 0.359724 0.891023C0.590006 0.660317 0.862749 0.545346 1.17795 0.546113C1.49316 0.546879 1.76552 0.66185 1.99503 0.891023L23.0819 22.0455C23.3114 22.2754 23.4262 22.5437 23.4262 22.8503C23.4262 23.1569 23.3114 23.4252 23.0819 23.6551C22.8524 23.885 22.5801 24 22.2648 24C21.9496 24 21.6769 23.885 21.4466 23.6551ZM21.7909 16.9006C21.5996 16.9006 21.4179 16.8673 21.2458 16.8006C21.0737 16.7339 20.9111 16.6235 20.7581 16.4695L16.0817 11.7844C15.9286 11.6311 15.8475 11.4541 15.8384 11.2533C15.8292 11.0525 15.8816 10.8559 15.9956 10.6635C16.1868 10.3569 16.3257 10.0311 16.4122 9.68623C16.4986 9.34132 16.5415 8.98683 16.5407 8.62276C16.5407 7.51138 16.1486 6.56288 15.3644 5.77725C14.5802 4.99162 13.6335 4.59881 12.5241 4.59881C12.1607 4.59881 11.8069 4.64671 11.4626 4.74252C11.1183 4.83833 10.7932 4.97246 10.4872 5.14491C10.2959 5.24072 10.1001 5.28863 9.89961 5.28863C9.69916 5.28863 9.52205 5.21198 9.36828 5.05869L7.56083 3.24791C7.40782 3.09462 7.29803 2.93174 7.23147 2.75929C7.16491 2.58683 7.13125 2.4048 7.13048 2.21318C7.13048 1.94492 7.19283 1.70041 7.31754 1.47967C7.44224 1.25893 7.6381 1.09145 7.9051 0.977251C8.63191 0.651502 9.38281 0.406999 10.1578 0.243742C10.9328 0.0804843 11.7216 -0.000761095 12.5241 5.37244e-06C14.1116 5.37244e-06 15.6035 0.301993 16.9997 0.905969C18.396 1.50995 19.6105 2.32892 20.6433 3.36288C21.6761 4.39684 22.494 5.61361 23.0968 7.01318C23.6997 8.41275 24.0008 9.90736 24 11.497C24 12.3018 23.9185 13.0924 23.7556 13.8688C23.5926 14.6453 23.3489 15.3972 23.0245 16.1246C22.9098 16.3928 22.7426 16.5894 22.5231 16.7143C22.3035 16.8393 22.0594 16.9014 21.7909 16.9006Z" fill="#FF9900"/>
</svg>
