<svg width="19" height="24" viewBox="0 0 19 24" fill="none" xmlns="http://www.w3.org/2000/svg">
<path d="M1 9.8H18M13.1429 6.5V13.1M1 5.4C1 4.23305 1.51173 3.11389 2.42262 2.28873C3.33351 1.46357 4.56895 1 5.85714 1H13.1429C14.4311 1 15.6665 1.46357 16.5774 2.28873C17.4883 3.11389 18 4.23305 18 5.4V20.8C18 21.3835 17.7441 21.9431 17.2887 22.3556C16.8332 22.7682 16.2155 23 15.5714 23H3.42857C2.78447 23 2.16676 22.7682 1.71131 22.3556C1.25587 21.9431 1 21.3835 1 20.8V5.4Z" stroke="#666666" stroke-width="2" stroke-linecap="round" stroke-linejoin="round"/>
</svg>
